<svg version="1.2" xmlns="http://www.w3.org/2000/svg" viewBox="0 0 1280 720" width="3000" height="1688">
	<title>New Project</title>
	<defs>
		<linearGradient id="g1" x1="2150.7" y1="588.7" x2="-928.5" y2="2556.8" gradientUnits="userSpaceOnUse">
			<stop offset="0" stop-color="#8663aa"/>
			<stop offset="1" stop-color="#404ba0"/>
		</linearGradient>
	</defs>
	<style>
		.s0 { fill: url(#g1) } 
		.s1 { fill: #c6e2f4 } 
		.s2 { fill: #3285ff } 
		.s3 { fill: none;stroke: #3081f8;stroke-width: 2.7 } 
		.s4 { opacity: .1;mix-blend-mode: overlay;fill: #000000 } 
		.s5 { fill: #2d76e3 } 
		.s6 { fill: none;stroke: #296ed3;stroke-width: 3.4 } 
		.s7 { fill: #3087ff } 
		.s8 { fill: none;stroke: #3087ff;stroke-width: 2.6 } 
		.s9 { fill: #78b0ff } 
		.s10 { fill: none;stroke: #78b0ff;stroke-width: 1.8 } 
		.s11 { fill: none;stroke: #296ed3;stroke-width: 1.6 } 
		.s12 { fill: #ffb49b } 
		.s13 { fill: #41378c } 
		.s14 { fill: #ffffff } 
		.s15 { fill: #9b14aa } 
		.s16 { fill: #be1ec8 } 
		.s17 { fill: #ffa587 } 
		.s18 { fill: #f5876e } 
	</style>
	<path id="&lt;Path&gt;" class="s0" d="m1320 1109.5h-1248.5c-69.3 0-125.5-56.2-125.5-125.6v-1247.8c0-69.4 56.2-125.6 125.5-125.6h1248.5z"/>
	<path id="&lt;Path&gt;" class="s1" d="m840.7 306.9c0 104.3-84.5 188.8-188.8 188.8-104.2 0-188.8-84.5-188.8-188.8 0-104.2 84.6-188.8 188.8-188.8 104.3 0 188.8 84.6 188.8 188.8z"/>
	<path id="&lt;Path&gt;" class="s2" d="m552 506.5c0 0-1-86.4 57.3-138.2 26.5-23.5 87.6 6.8 28.9 46.7-24.2 16.4-61.2 31.1-86.2 91.5z"/>
	<path id="&lt;Path&gt;" class="s3" d="m630.2 384.7c0 0-84.1 55.3-79.5 153.6"/>
	<path id="&lt;Path&gt;" class="s4" d="m713.9 536.5c0 5-29.2 9.1-65.3 9.1-36 0-65.2-4.1-65.2-9.1 0-5 29.2-9.1 65.2-9.1 36.1 0 65.3 4.1 65.3 9.1z"/>
	<path id="&lt;Path&gt;" class="s5" d="m393.8 428.8c-85.5-24.2-25.3-83 16-66.9 119.8 46.8 122.7 141.6 122.7 141.6-53.6-61.9-103.3-64.7-138.7-74.7z"/>
	<path id="&lt;Path&gt;" class="s6" d="m391.4 389.6c0 0 121.8 32.5 155.2 151.1"/>
	<path id="&lt;Path&gt;" class="s7" d="m446.4 306.2c7.8 5.2 10.1 15.2 10.1 15.2 0 0-10.2 1.7-17.9-3.5-7.8-5.2-12.3-12-10.2-15.2 2.2-3.3 10.2-1.7 18 3.5z"/>
	<path id="&lt;Path&gt;" class="s7" d="m464.2 328.4c6.6 2.6 9.9 9.7 9.9 9.7 0 0-7.3 2.8-13.9 0.2-6.5-2.7-10.9-7-9.8-9.7 1.1-2.8 7.3-2.8 13.8-0.2z"/>
	<path id="&lt;Path&gt;" class="s7" d="m471.1 320.1c2.7 6.5 0 13.8 0 13.8 0 0-7.2-3.2-9.9-9.7-2.7-6.6-2.7-12.8 0-13.9 2.8-1.1 7.2 3.2 9.9 9.8z"/>
	<path id="&lt;Path&gt;" class="s7" d="m475.2 343c8.3 1.9 13.5 9.7 13.5 9.7 0 0-8.1 4.7-16.4 2.8-8.3-1.9-14.4-6.3-13.6-9.7 0.8-3.5 8.2-4.7 16.5-2.8z"/>
	<path id="&lt;Path&gt;" class="s7" d="m489.7 334.3c2.4 8.2-1.8 16.6-1.8 16.6 0 0-8.1-4.8-10.5-13-2.4-8.1-1.5-15.6 1.9-16.6 3.4-1 8.1 4.9 10.4 13z"/>
	<path id="&lt;Path&gt;" class="s7" d="m483.1 360.1c8.5 0 15.4 6.4 15.4 6.4 0 0-6.8 6.5-15.4 6.5-8.5 0-15.4-2.8-15.4-6.4 0-3.5 6.9-6.4 15.4-6.5z"/>
	<path id="&lt;Path&gt;" class="s7" d="m493.5 379.1c9.1-0.5 16.8 6.1 16.8 6.1 0 0-7 7.1-16.1 7.6-9.1 0.4-16.6-2.3-16.8-6.1-0.2-3.8 7.1-7.2 16.1-7.6z"/>
	<path id="&lt;Path&gt;" class="s7" d="m503 398c9-1.3 17.3 4.4 17.3 4.4 0 0-6.2 7.8-15.2 9.2-9 1.3-16.8-0.6-17.3-4.4-0.6-3.7 6.3-7.9 15.2-9.2z"/>
	<path id="&lt;Path&gt;" class="s7" d="m513.8 419.6c9.1 0.1 16.3 7.1 16.3 7.1 0 0-7.4 6.7-16.5 6.6-9.1-0.2-16.4-3.4-16.4-7.2 0.1-3.7 7.5-6.7 16.6-6.5z"/>
	<path id="&lt;Path&gt;" class="s7" d="m509.9 337.5c3.3 1.4 3.2 8.8-0.2 16.7-3.3 7.8-11.9 11.6-11.9 11.6 0 0-3.2-8.9 0.1-16.7 3.4-7.8 8.8-13 12-11.6z"/>
	<path id="&lt;Path&gt;" class="s7" d="m528.6 358.2c3.1 2.1 1.5 9.9-3.6 17.4-5.2 7.5-15 9.7-15 9.7 0 0-1.5-9.9 3.7-17.4 5.1-7.5 11.8-11.9 14.9-9.7z"/>
	<path id="&lt;Path&gt;" class="s7" d="m540.6 377.8c2.9 2.5 0.5 10.1-5.4 17-5.9 6.9-15.9 8.1-15.9 8.1 0 0-0.4-10 5.4-17 5.9-6.9 13-10.5 15.9-8.1z"/>
	<path id="&lt;Path&gt;" class="s7" d="m546.5 398.7c3.2 2 2.1 9.9-2.6 17.7-4.7 7.8-14.3 10.6-14.3 10.6 0 0-2.1-9.8 2.5-17.6 4.7-7.8 11.1-12.6 14.4-10.7z"/>
	<path id="&lt;Path&gt;" class="s7" d="m523 442.2c8.9 2 14.5 10.3 14.5 10.3 0 0-8.7 5.1-17.6 3.1-8.8-2.1-15.3-6.7-14.5-10.4 0.9-3.7 8.7-5 17.6-3z"/>
	<path id="&lt;Path&gt;" class="s7" d="m559.3 428.6c2.7 2.5 0 10-6.2 16.7-6.2 6.7-16.2 7.4-16.2 7.4 0 0 0-10 6.1-16.7 6.2-6.7 13.5-10 16.3-7.4z"/>
	<path id="&lt;Path&gt;" class="s7" d="m528.8 466.8c8.6 2.8 13.6 11.5 13.6 11.5 0 0-9.1 4.3-17.8 1.5-8.7-2.7-14.7-7.9-13.6-11.5 1.2-3.6 9.1-4.3 17.8-1.5z"/>
	<path id="&lt;Path&gt;" class="s7" d="m566.1 456.3c2.5 2.8-0.9 10-7.6 16.1-6.7 6.2-16.8 6.1-16.8 6.1 0 0 0.9-10.1 7.6-16.2 6.7-6.1 14.2-8.8 16.8-6z"/>
	<path id="&lt;Path&gt;" class="s8" d="m447.2 315.6c0 0 44.6 24.2 74.4 91.7 29.7 67.4 24.1 131.2 24.1 131.2"/>
	<path id="&lt;Path&gt;" class="s9" d="m854.4 391.2c1.2 2.4-2.5 6.7-8.3 9.7-5.8 2.9-12.7 0.9-12.7 0.9 0 0 2.5-6.7 8.3-9.7 5.8-2.9 11.5-3.3 12.7-0.9z"/>
	<path id="&lt;Path&gt;" class="s9" d="m837.1 407.2c0.5 2-2.9 4.6-7.6 5.9-4.7 1.3-9.5-1.3-9.5-1.3 0 0 2.9-4.6 7.6-5.8 4.7-1.3 9-0.8 9.5 1.2z"/>
	<path id="&lt;Path&gt;" class="s9" d="m831.1 393.7c1.8 1 1.3 5.3-1.1 9.6-2.4 4.3-7.6 5.9-7.6 5.9 0 0-1.2-5.3 1.2-9.5 2.4-4.3 5.8-7 7.5-6z"/>
	<path id="&lt;Path&gt;" class="s9" d="m830 418.4c0.2 2.4-4.3 4.9-10.2 5.6-5.9 0.6-11.1-3.3-11.1-3.3 0 0 4.3-4.9 10.1-5.6 5.9-0.6 10.9 0.8 11.2 3.3z"/>
	<path id="&lt;Path&gt;" class="s9" d="m817.8 399.9c2.3 0.9 2.2 6.1-0.1 11.5-2.3 5.5-8.3 8.1-8.3 8.1 0 0-2.2-6.1 0.1-11.5 2.3-5.5 6-9.1 8.3-8.1z"/>
	<path id="&lt;Path&gt;" class="s9" d="m822 432c-0.3 2.4-5.3 3.8-11.1 3.1-5.9-0.7-10.1-5.7-10.1-5.7 0 0 5.3-3.9 11.2-3.1 5.8 0.7 10.3 3.3 10 5.7z"/>
	<path id="&lt;Path&gt;" class="s9" d="m813.7 445c-0.4 2.6-5.8 3.9-12.1 2.8-6.2-1-10.4-6.5-10.4-6.5 0 0 5.8-3.9 12-2.9 6.2 1.1 10.9 4 10.5 6.6z"/>
	<path id="&lt;Path&gt;" class="s9" d="m804.9 458.3c-0.7 2.6-6.2 3.3-12.3 1.6-6.1-1.7-9.8-7.6-9.8-7.6 0 0 6.2-3.3 12.3-1.6 6.1 1.7 10.5 5.1 9.8 7.6z"/>
	<path id="&lt;Path&gt;" class="s9" d="m796.8 470.6c-0.3 2.6-5.6 4.2-11.9 3.5-6.2-0.6-10.8-5.9-10.8-5.9 0 0 5.5-4.2 11.8-3.5 6.3 0.6 11.2 3.3 10.9 5.9z"/>
	<path id="&lt;Path&gt;" class="s9" d="m802.7 417.5c1.6 5.6-1.3 11.5-1.3 11.5 0 0-5.6-3.4-7.3-9-1.7-5.7-1.1-10.9 1.3-11.6 2.3-0.7 5.6 3.4 7.3 9.1z"/>
	<path id="&lt;Path&gt;" class="s9" d="m790.3 429.1c2.9 5.6 1.1 12.3 1.1 12.3 0 0-6.6-2.3-9.6-7.9-2.9-5.6-3.4-11.1-1-12.3 2.3-1.2 6.6 2.3 9.5 7.9z"/>
	<path id="&lt;Path&gt;" class="s9" d="m781.2 440.6c3.4 5.3 2.3 12.2 2.3 12.2 0 0-6.8-1.7-10.3-6.9-3.5-5.3-4.5-10.7-2.3-12.2 2.2-1.4 6.8 1.7 10.3 6.9z"/>
	<path id="&lt;Path&gt;" class="s9" d="m774.1 456.1c2.6 5.8 0.3 12.4 0.3 12.4 0 0-6.4-2.7-9-8.5-2.5-5.7-2.7-11.3-0.3-12.4 2.4-1 6.5 2.8 9 8.5z"/>
	<path id="&lt;Path&gt;" class="s9" d="m789.6 483c0.2 2.7-4.6 5.3-10.9 6-6.3 0.6-11.8-3.6-11.8-3.6 0 0 4.5-5.2 10.8-5.9 6.3-0.7 11.6 0.9 11.9 3.5z"/>
	<path id="&lt;Path&gt;" class="s9" d="m764.4 473.6c3.7 5.1 2.9 12 2.9 12 0 0-6.9-1.3-10.6-6.4-3.7-5.1-5-10.5-2.8-12.1 2.1-1.5 6.8 1.4 10.5 6.5z"/>
	<path id="&lt;Path&gt;" class="s9" d="m783.8 498.5c0.5 2.6-4.1 5.6-10.3 6.8-6.2 1.2-12.1-2.5-12.1-2.5 0 0 4.1-5.6 10.3-6.8 6.2-1.2 11.6-0.1 12.1 2.5z"/>
	<path id="&lt;Path&gt;" class="s9" d="m757.9 491.2c4.2 4.8 3.9 11.8 3.9 11.8 0 0-6.9-0.8-11.1-5.6-4.1-4.7-5.8-10-3.8-11.7 2-1.7 6.9 0.7 11 5.5z"/>
	<path id="&lt;Path&gt;" class="s10" d="m754.2 544c0 0 1.3-44.4 27.4-88.4 26-44.1 58.7-57 58.7-57"/>
	<path id="&lt;Path&gt;" class="s5" d="m743.4 508.5c0 0-33.5-102.8 16.8-186.6 22.9-38 107.3-24.6 52.1 45-22.8 28.8-61.5 60.1-68.9 141.6z"/>
	<path id="&lt;Path&gt;" class="s6" d="m791.3 333.7c0 0-79.8 97.6-37.5 213.3"/>
	<path id="&lt;Path&gt;" class="s5" d="m760.3 526.6c0 0 15.5-49.7 58.6-68.5 19.6-8.6 49 20.2 7.9 32.1-17 4.9-40.9 6.5-66.5 36.4z"/>
	<path id="&lt;Path&gt;" class="s11" d="m827.8 471.3c0 0-58.5 16.1-74.1 73.3"/>
	<path id="&lt;Path&gt;" class="s12" d="m716.2 148.4l-0.3-11.8c0-1.9-0.9-3.7-2.3-5-2.3-2-5.1-5.7-4.4-6.6 1.2-1.6 5.2 4.2 6.8 3.1 0.5-0.4-2.3-16.4-0.6-16.3 1.2 0.1 1.7 9.1 2.3 9 0.6 0 0.4-14.8 1.6-14.7 1.1 0.1 1.5 13.6 2.3 13.1 1.2-0.7 0-11.9 1.9-12.4 1.3-0.4 1.1 14.2 1.8 14.4 0.8 0.3 1.2-9.4 2.3-9 1.5 0.5-0.7 17-0.7 17l-2.9 21z"/>
	<path id="&lt;Path&gt;" class="s12" d="m540 207.9l-16.5-13.3c0 0-13-10.4-12.2-11.8 0.5-1 7.4 5.7 7.9 4.9 0.3-0.7-9.8-11.1-8.7-11.7 1.8-0.9 8.6 8 9.9 7.7 0.9-0.1-8.1-10.2-7.3-11.1 0.8-0.9 10.8 10 11.3 9.7 0.4-0.4-5.4-7.3-4.5-8.2 1.1-1.2 10.1 12.3 10.7 12.2 2-0.2 0.9-7.2 2.9-6.9 1 0.2 1.5 4.8 1.3 7.9-0.2 1.9 0.4 3.8 1.7 5.2l8 8.7z"/>
	<path id="&lt;Path&gt;" class="s13" d="m678.3 204.4c0 19.6-15.9 35.6-35.5 35.6-3.2 0-7-1.2-10.8-2.8-8.8-3.7-18.3-5-27.9-4.5q-3 0.1-6.2-0.3c-16.5-2.2-29.6-16-30.8-32.6q-0.1-1.1-0.1-2.2c-0.1-8.8-1.5-17.5-4.3-25.9q-0.1-0.2-0.2-0.5c-5-15.3 7.8-30.6 23.7-28.5 3.4 0.5 6.6 0.9 9.5 1.3 6.6 0.9 13.2 0.6 19.8-0.2q2.1-0.3 4.3-0.3c16.7 0 30.8 11.7 34.5 27.3 14 4.8 24 18 24 33.6z"/>
	<path id="&lt;Path&gt;" class="s14" d="m737.1 166.5c0 0-5.5 55.1-13.9 71.1-6.6 12.7-40 41-40 41-4.6 4.8-12.4 4.5-16.7-0.6-3.1-3.7-3.6-8.9-1.1-13 0 0 30.4-32.8 34.9-46.7 4.2-13.1-0.7-55.2-0.7-55.2-0.2-12.2 11.1-21.4 23.1-18.7 10 2.2 16.4 12.1 14.4 22.1z"/>
	<path id="&lt;Path&gt;" class="s13" d="m695.6 490.6c-4.5 6.7-7.1 9.4-9 8.9-2-0.5-1.6-6.4 0.5-14.1 2.1-7.7 3.2-12 9.4-10 4.1 1.4 4.4 7.3-0.9 15.2z"/>
	<path id="&lt;Path&gt;" class="s12" d="m708.9 473.4l-10 8.4c-1.2 1.1-3.1 1.1-4.3-0.1-1.2-1.2-1.3-3.1 0.6-5.7l6.1-8.3z"/>
	<path id="&lt;Path&gt;" class="s15" d="m775 389.5c-4.9 20.4-46.9 68-67.6 87.3-0.3 0.3-1 0.6-1.4 0.3-3.9-2.5-5.3-4.1-7.5-6.5-0.4-0.5-0.4-1.2-0.1-1.8 0 0 36.8-58 36.7-71.8 0-3.3-42.3 2-63.5-10.6-14.3-8.4-22.7-49.4 7.6-61.4 5.7-2.2 104.1 30.3 95.8 64.5z"/>
	<path id="&lt;Path&gt;" class="s13" d="m519.1 463.3c-7.9 1.2-11.7 1-12.6-0.7-1-1.8 3.6-5.5 10.7-9.1 7.1-3.7 11.1-5.8 13.7 0.2 1.8 3.9-2.3 8.1-11.8 9.6z"/>
	<path id="&lt;Path&gt;" class="s12" d="m540.8 461.5l-12.9-1.7c-1.7-0.2-2.9-1.6-2.9-3.3 0.1-1.7 1.4-3 4.7-3.3l10.2-1.2z"/>
	<path id="&lt;Path&gt;" class="s16" d="m640.3 459c-18.1 10.9-74.8 5.9-103 3.7-0.5-0.1-1.1-0.4-1.2-0.9-0.8-4.5-0.5-6.7-0.2-9.9 0.1-0.6 0.5-1.1 1.2-1.3 0 0 67.7-11.9 77.8-21.3 2.4-2.3 10.1-22.4 5.1-46.6-3.4-16.2-4.9-42.7 25.5-54.2 0 0 29.5-5.1 35.7 1.3 23.5 24.4 0.5 104.4-40.9 129.2z"/>
	<path id="&lt;Path&gt;" class="s14" d="m653.6 338.5c-3.9-1.3-7.3-4-9.5-7.5-11.6-18.7-14.2-46.6-15.4-61.4-2.1-23.8 29.2-28.5 44.8-28.5 23.2 0 32.5 22.3 34.9 34.3 2.6 12.8-3.1 35.3-7.2 49-2.8 9.2-10.7 15.8-20.2 17-11.1 1.4-21.3-1-27.4-2.9z"/>
	<path id="&lt;Path&gt;" class="s17" d="m670.7 254.1c-4.5 0-8.1-3.7-8.1-8.2v-26.8h16.3v26.8c0 4.5-3.7 8.2-8.2 8.2z"/>
	<path id="&lt;Path&gt;" class="s18" d="m662.6 222.1v-3h16.3v20.7q-0.8 0.2-1.7 0.2c-8.1 0-14.6-9.8-14.6-17.9z"/>
	<path id="&lt;Path&gt;" class="s12" d="m680.9 234.3c-6.6 2.6-18.7-2-21.2-8.7 0 0-5.6-10.1-5.3-13.7 1.4-17 17.6-13.7 23.5-11.1 3.3 1.5 5 12 5.9 15.6 1.8 6.9 0 16.8-2.9 17.9z"/>
	<path id="&lt;Path&gt;" class="s17" d="m655.6 213.9l4.1 10.8c-2.9 1.1-6.2-0.4-7.4-3.4-1.1-3 0.3-6.3 3.3-7.4z"/>
	<path id="&lt;Path&gt;" class="s17" d="m679.2 204.3c-0.5 0.3-1.1 0.6-1.7 0.8q-1.1 0.4-2.1 0.6c-3.4 0.8-6.3 3-8 6-1.2 2.1-3.2 3.8-5.6 4.8-1.1 0.4-2.1 1.1-2.7 2.1q-0.5 0.7-1.1 1.3-0.6-0.6-1-1.4c-0.8-2.2 0.2-4.5 2.3-5.4l-1.8-4.5 20.4-7.8z"/>
	<path id="&lt;Path&gt;" class="s13" d="m685.1 182.3c3.5 8.4-0.6 17.9-9 21.1q-1.2 0.4-2.4 0.7c-3.9 0.8-7.1 3.4-9.1 6.8-1.4 2.4-3.6 4.4-6.4 5.4-1.2 0.5-2.4 1.3-3.1 2.5-0.8 1.2-2 2.2-3.6 2.8-3.6 1.4-7.7-0.2-9-3.7-0.4-1-0.5-2-0.4-3 0.3-2.1-0.1-4.3-0.8-6.4q-0.3-0.9-0.5-1.9c-1-5 1.3-10.3 5.7-13.1q0 0 0.1 0c3.9-2.5 7.2-5.9 8.7-10.3 1.4-4.1 4.6-7.7 8.9-9.5 7.9-3.2 17.7 0.8 20.9 8.6z"/>
	<path id="&lt;Path&gt;" class="s14" d="m536.3 197.5c8.2-7.7 16.3-6.4 26.7 3.6 0 0 26.7 32.3 38.2 38.9 11.3 6.5 52.3 13.1 52.3 13.1 3.8 2.1 5.9 6.3 5.1 10.6-1.1 6-7.2 9.9-13 8.4 0 0-46.2-4.9-58.1-10-16.4-7-52.7-40.7-52.7-40.7-8.3-5.1-5.5-17.4 1.5-23.9z"/>
</svg>